# xmcd
#
# Track frame offsets: 
#        150
#        16313
#        33500
#        45879
#        64319
#        88953
#        105181
#        121019
#        139570
#        161029
#        177989
#        197261
#
# Disc length: 2883 seconds
#
# Revision: 0
# Processed by: cddbd v1.5.2PL0 Copyright (c) Steve Scherf et al.
# Submitted via: ExactAudioCopy v1.0b3
#
DISCID=8f0b410c
DTITLE=Jean-Paul Amouroux and Milt Buckner - Boogie For Piano and Organ
DYEAR=1900
DGENRE=
TTITLE0=Sixth Avenue Express No.1
TTITLE1=Swanee River Boogie
TTITLE2=Meridien Blues
TTITLE3=Yancey Special
TTITLE4=Hamp's Boogie Woogie
TTITLE5=Devil's Boogie
TTITLE6=You Are My Sunshine
TTITLE7=Honky Tonk Train Blues
TTITLE8=Pinetop's Boogie Woogie
TTITLE9=Sixth Avenue Express No.2
TTITLE10=Boogie Woogie on Lady Be Good
TTITLE11=Death Ray Boogie
EXTD=
EXTT0=
EXTT1=
EXTT2=
EXTT3=
EXTT4=
EXTT5=
EXTT6=
EXTT7=
EXTT8=
EXTT9=
EXTT10=
EXTT11=
PLAYORDER=
